<svg id="Capa_1" enable-background="new 0 0 512.02 512.02" height="512" viewBox="0 0 512.02 512.02" width="512" xmlns="http://www.w3.org/2000/svg"><g><g id="Page-1_67_"><g id="_x30_68---404-Page" transform="translate(-1)"><path id="Shape_340_" d="m487.41.01h-460.8c-14.551.464-25.993 12.6-25.6 27.153v372.361c-.393 14.553 11.049 26.689 25.6 27.153h148.326l-17.066 34.133h-28.86c-14.138 0-25.6 11.462-25.6 25.6s11.462 25.6 25.6 25.6h256c14.138 0 25.6-11.462 25.6-25.6s-11.462-25.6-25.6-25.6h-28.86l-17.067-34.133h148.327c14.551-.464 25.993-12.6 25.6-27.153v-372.361c.392-14.554-11.049-26.689-25.6-27.153zm-460.8 17.066h460.8c5.091.526 8.858 4.979 8.533 10.086v331.248h-477.867v-331.247c-.324-5.108 3.443-9.561 8.534-10.087zm366.933 469.334c0 4.713-3.82 8.533-8.533 8.533h-256c-4.713 0-8.533-3.821-8.533-8.533s3.821-8.533 8.533-8.533h256c4.713-.001 8.533 3.82 8.533 8.533zm-56.473-25.6h-160.12l17.067-34.133h125.986zm150.34-51.2h-460.8c-5.091-.526-8.858-4.979-8.533-10.086v-24.047h477.867v24.047c.324 5.107-3.443 9.56-8.534 10.086z"/><path  id="Shape_339_" d="m60.743 341.343h392.533c14.138 0 25.6-11.462 25.6-25.6v-256c0-14.138-11.462-25.6-25.6-25.6h-392.533c-14.138 0-25.6 11.462-25.6 25.6v256c0 14.139 11.462 25.6 25.6 25.6zm-8.533-281.6c0-4.713 3.821-8.533 8.533-8.533h392.533c4.713 0 8.533 3.821 8.533 8.533v256c0 4.713-3.82 8.533-8.533 8.533h-392.533c-4.713 0-8.533-3.82-8.533-8.533z"/><path fill="#0db1f4"  id="Shape_338_" d="m77.81 221.876h59.733v25.6c0 4.713 3.82 8.533 8.533 8.533s8.533-3.821 8.533-8.533v-25.6h17.067c4.713 0 8.533-3.821 8.533-8.533 0-4.713-3.82-8.533-8.533-8.533h-17.066v-76.8c.002-3.625-2.287-6.856-5.708-8.056s-7.226-.109-9.49 2.723l-68.267 85.333c-2.051 2.562-2.451 6.072-1.03 9.03 1.422 2.957 4.413 4.838 7.695 4.836zm59.733-69.538v52.471h-41.975z"/><path fill="#0db1f4"  id="Shape_337_" d="m342.343 221.876h59.733v25.6c0 4.713 3.821 8.533 8.533 8.533s8.533-3.821 8.533-8.533v-25.6h17.067c4.713 0 8.533-3.821 8.533-8.533 0-4.713-3.821-8.533-8.533-8.533h-17.067v-76.8c.002-3.625-2.287-6.856-5.708-8.056s-7.226-.109-9.49 2.723l-68.267 85.333c-2.051 2.562-2.451 6.072-1.03 9.03 1.423 2.957 4.415 4.838 7.696 4.836zm59.733-69.538v52.471h-41.975z"/><path fill="#0db1f4" id="Shape_336_" d="m257.01 256.01c32.93 0 59.733-30.626 59.733-68.267s-26.803-68.267-59.733-68.267-59.733 30.626-59.733 68.267 26.803 68.267 59.733 68.267zm0-119.467c23.526 0 42.667 22.963 42.667 51.2s-19.14 51.2-42.667 51.2-42.667-22.963-42.667-51.2 19.14-51.2 42.667-51.2z"/></g></g></g></svg>