<?xml version="1.0" encoding="UTF-8"?>
<svg xmlns="http://www.w3.org/2000/svg" id="Outline" viewBox="0 0 512 512" width="512" height="512"><path d="M488,80a8,8,0,0,0,8-8V32a8,8,0,0,0-8-8H448a8,8,0,0,0,0,16h20.686l-32,32H414.624a24,24,0,1,0-44.279,18.341l-64,64A23.99,23.99,0,0,0,273.376,168H198.624a23.995,23.995,0,1,0-43.481,19.851L146.1,198.28l-18.3-4.574a8,8,0,0,0-5.279-9.295l-96-32A8,8,0,0,0,16,160V335.305a8,8,0,0,0,5.372,7.556l48,16.7a8,8,0,0,0,10.29-5.258l1.764-5.879L238.344,498.205a25.181,25.181,0,0,0,41.387-10.633,24.957,24.957,0,0,0,32.048-15.984,24.976,24.976,0,0,0,31.8-31.789,24.964,24.964,0,0,0,17.35-24.9l69.642-66.477,1.764,5.879a8,8,0,0,0,10.29,5.258l48-16.7A8,8,0,0,0,496,335.305V160a8,8,0,0,0-10.53-7.589l-96,32a8,8,0,0,0-5.317,9.138L248.108,223.781l-84.6-21.15,3.724-4.3A23.976,23.976,0,0,0,198.624,184h74.752a24,24,0,1,0,44.279-18.341l64-64A23.99,23.99,0,0,0,414.624,88H440a8,8,0,0,0,5.657-2.343L480,51.314V72A8,8,0,0,0,488,80ZM32,171.1l25.751,8.584L32,275.011ZM66.738,341.7,33.667,330.2,72.956,184.752l37.151,12.384ZM480,171.1V275.011l-25.751-95.327Zm-40.956,13.652L478.333,330.2l-33.071,11.5L401.893,197.136Zm-187.113,54.57,136.794-30.4,36.691,122.3-71.071,67.841c-.225-.244-.451-.487-.688-.723l-97.485-97.485,43.406-21.7a8,8,0,0,0-7.156-14.311l-81.889,40.944a9.871,9.871,0,0,1-12.392-14.643ZM185.916,280.8a25.875,25.875,0,0,0,31.773,39.3l23.4-11.7L342.343,409.657a8.971,8.971,0,0,1-12.686,12.687l-68-68a8,8,0,0,0-11.314,11.313l76,76a8.971,8.971,0,0,1-12.686,12.687l-76-76a8,8,0,0,0-11.314,11.313l68,68a8.971,8.971,0,0,1-12.686,12.687l-76-76a8,8,0,0,0-11.314,11.313l67.866,67.866a9.168,9.168,0,0,1,0,12.96,9.224,9.224,0,0,1-12.813.149L86.584,331.226l36.651-122.17,108.82,27.2C215.773,251.96,186.073,280.6,185.916,280.8ZM176,184a8,8,0,1,1,8-8A8.009,8.009,0,0,1,176,184Zm120,0a8,8,0,1,1,8-8A8.009,8.009,0,0,1,296,184Zm96-96a8,8,0,1,1,8-8A8.009,8.009,0,0,1,392,88Z"/><path fill="#0db1f4" d="M240,136a64,64,0,1,0-64-64A64.072,64.072,0,0,0,240,136Zm0-112a48,48,0,1,1-48,48A48.055,48.055,0,0,1,240,24Z"/><path  fill="#0db1f4" d="M226.343,93.657a8,8,0,0,0,11.314,0l32-32a8,8,0,0,0-11.314-11.314L232,76.687,221.657,66.343a8,8,0,0,0-11.314,11.314Z"/></svg>
