<svg xmlns="http://www.w3.org/2000/svg" width="26px" height="22px">
				<path fill-rule="evenodd" fill="#fff" d="M9.712,-0.000 C8.361,-0.000 7.247,1.114 7.247,2.465 L7.247,3.287 L2.465,3.287 C1.114,3.287 0.000,4.401 0.000,5.752 L0.000,19.534 C0.000,20.886 1.114,21.999 2.465,21.999 L23.534,21.999 C24.886,21.999 26.000,20.886 26.000,19.534 L26.000,5.752 C26.000,4.401 24.886,3.287 23.534,3.287 L18.753,3.287 L18.753,2.465 C18.753,1.114 17.639,-0.000 16.287,-0.000 L9.712,-0.000 ZM9.712,1.643 L16.287,1.643 C16.757,1.643 17.109,1.995 17.109,2.465 L17.109,3.287 L8.891,3.287 L8.891,2.465 C8.891,1.995 9.243,1.643 9.712,1.643 ZM2.465,4.931 L23.534,4.931 C24.004,4.931 24.356,5.283 24.356,5.752 L24.356,10.905 L15.877,10.905 L15.877,9.415 C15.876,8.962 15.508,8.593 15.054,8.593 L10.945,8.593 C10.491,8.593 10.124,8.962 10.124,9.415 L10.124,10.905 L1.644,10.905 L1.644,5.752 C1.644,5.283 1.996,4.931 2.465,4.931 ZM11.767,10.237 L14.233,10.237 L14.233,13.203 L11.767,13.203 L11.767,10.237 ZM1.644,12.549 L10.124,12.549 L10.124,14.025 C10.124,14.479 10.491,14.848 10.945,14.848 L15.054,14.848 C15.508,14.848 15.876,14.479 15.877,14.025 L15.877,12.549 L24.356,12.549 L24.356,19.534 C24.356,20.004 24.004,20.356 23.534,20.356 L2.465,20.356 C1.996,20.356 1.644,20.004 1.644,19.534 L1.644,12.549 Z"></path>
			</svg>