<svg id="Layer_1" enable-background="new 0 0 512 512" height="512" viewBox="0 0 512 512" width="512" xmlns="http://www.w3.org/2000/svg"><path fill="#0db1f4" d="m455 352c11.046 0 20-8.954 20-20v-252c0-44.112-35.888-80-80-80h-278c-44.112 0-80 35.888-80 80v352c0 44.112 35.888 80 80 80h278c44.112 0 80-35.888 80-80 0-11.046-8.954-20-20-20s-20 8.954-20 20c0 22.056-17.944 40-40 40h-278c-22.056 0-40-17.944-40-40v-232h358v132c0 11.046 8.954 20 20 20zm-378-192v-80c0-22.056 17.944-40 40-40h278c22.056 0 40 17.944 40 40v80zm298 80c11.046 0 20 8.954 20 20v152c0 11.046-8.954 20-20 20s-20-8.954-20-20v-152c0-11.046 8.954-20 20-20zm-216.92 20c0 11.046-10.034 20-21.08 20s-20-8.954-20-20c0-11.046 8.954-20 20-20s21.08 8.954 21.08 20zm78.92 0c0 11.046-8.954 20-20 20s-20-8.954-20-20c0-11.046 8.954-20 20-20s20 8.954 20 20zm79 0c0 11.046-8.954 20-20 20s-20-8.954-20-20c0-11.046 8.954-20 20-20s20 8.954 20 20zm-158 76c0 11.046-9.954 20-21 20s-20-8.954-20-20c0-11.046 8.954-20 20-20s21 8.954 21 20zm79 0c0 11.046-8.954 20-20 20s-20-8.954-20-20c0-11.046 8.954-20 20-20s20 8.954 20 20zm-79 76c0 11.046-9.954 20-21 20s-20-8.954-20-20c0-11.046 8.954-20 20-20s21 8.954 21 20zm79 0c0 11.046-8.954 20-20 20s-20-8.954-20-20c0-11.046 8.954-20 20-20s20 8.954 20 20zm79-76c0 11.046-8.954 20-20 20s-20-8.954-20-20c0-11.046 8.954-20 20-20s20 8.954 20 20zm0 76c0 11.046-8.954 20-20 20s-20-8.954-20-20c0-11.046 8.954-20 20-20s20 8.954 20 20zm-89-312c0 11.046-8.954 20-20 20h-70c-11.046 0-20-8.954-20-20s8.954-20 20-20h70c11.046 0 20 8.954 20 20z"/></svg>