<?xml version="1.0" encoding="UTF-8"?>
<svg xmlns="http://www.w3.org/2000/svg" id="Outline" viewBox="0 0 512 512" width="512" height="512"><path d="M384,16H80a8,8,0,0,0-8,8V160a40.045,40.045,0,0,0-40,40v89.008L17.728,307.034a8,8,0,0,0-1.62,6.281L32,408.663V432a8,8,0,0,0-8,8v48a8,8,0,0,0,8,8H216a8,8,0,0,0,8-8V440a8,8,0,0,0-8-8V416H384a8,8,0,0,0,8-8V24A8,8,0,0,0,384,16ZM48,200a24.027,24.027,0,0,1,24-24v62.49L48,268.8ZM208,480H40V448H208ZM48,432V408a8.054,8.054,0,0,0-.108-1.315l-15.417-92.5,56.512-71.373a9.142,9.142,0,0,1,15.85,8.537L80.4,325.5A8,8,0,0,0,88,336a56.063,56.063,0,0,1,56,56v16a8,8,0,0,0,8,8h48v16Zm328-32H160v-8a72.117,72.117,0,0,0-61.206-71.193l16.573-50.293A7.959,7.959,0,0,0,120,272H344a8,8,0,0,0,0-16H120.133a25.059,25.059,0,0,0-.308-16.009c.059,0,.116.009.175.009H344a8,8,0,0,0,0-16H120a8,8,0,0,0-7.545,5.362,25.4,25.4,0,0,0-4.708-3.185A25.11,25.11,0,0,0,88,224.737V32H376Z"/><path fill="#0db1f4" d="M152,144a48,48,0,1,0-48-48A48.054,48.054,0,0,0,152,144Zm0-80a32,32,0,1,1-32,32A32.036,32.036,0,0,1,152,64Z"/><path d="M224,88H352a8,8,0,0,0,0-16H224a8,8,0,0,0,0,16Z"/><path d="M224,120H352a8,8,0,0,0,0-16H224a8,8,0,0,0,0,16Z"/><path d="M344,160H120a8,8,0,0,0,0,16H344a8,8,0,0,0,0-16Z"/><path d="M344,192H120a8,8,0,0,0,0,16H344a8,8,0,0,0,0-16Z"/><path d="M344,288H120a8,8,0,0,0,0,16H344a8,8,0,0,0,0-16Z"/><path fill="#0db1f4" d="M344,352H275.313l-13.656-13.657a8,8,0,0,0-11.314,0l-6.009,6.009-4.573-18.292A8,8,0,0,0,227,321.753l-40,32a8,8,0,0,0,10,12.494l30.265-24.212,4.976,19.9a8,8,0,0,0,13.418,3.717L256,355.313l10.343,10.344A8,8,0,0,0,272,368h72a8,8,0,0,0,0-16Z"/><path  d="M495.155,252.422,488,238.111V160a40.045,40.045,0,0,0-40-40h-8v-8a8,8,0,0,0-16,0v8h-8a8,8,0,0,0-8,8V432h.013a7.935,7.935,0,0,0,.3,2.2l16,56a8,8,0,0,0,15.384,0l16-56a7.935,7.935,0,0,0,.3-2.2H456V137.376A24.039,24.039,0,0,1,472,160v80a7.994,7.994,0,0,0,.845,3.578l8,16a8,8,0,1,0,14.31-7.156ZM440,152H424V136h16Zm-8,306.879L426.605,440H437.4ZM424,424V168h16V424Z"/></svg>
