<?xml version="1.0" encoding="utf-8"?>
<svg viewBox="184.4 144 143.276 223.9" width="143.276" height="223.9" xmlns="http://www.w3.org/2000/svg">
  <g>
    <path d="   M306.7,165L306.7,165c-28-28-73.4-28-101.3,0l0,0c-22.3,22.3-27.4,56.6-12.6,84.4L256,367.9l63.2-118.5   C334.1,221.6,329,187.4,306.7,165z M283.4,244L283.4,244c-15.2,15.2-39.7,15.2-54.9,0h0c-15.2-15.2-15.2-39.7,0-54.9l0,0   c15.2-15.2,39.7-15.2,54.9,0l0,0C298.6,204.3,298.6,228.9,283.4,244z" fill="none" stroke="#fff" stroke-linecap="round" stroke-linejoin="round" stroke-miterlimit="15" stroke-width="15"/>
  </g>
</svg>