<svg xmlns="http://www.w3.org/2000/svg" width="27px" height="25px">
				<path fill-rule="evenodd" fill="#fff" d="M27.002,24.517 L24.323,14.713 L24.335,14.702 L23.688,12.390 L20.720,1.527 L20.654,1.544 L20.222,-0.000 L19.093,1.001 C16.453,3.346 13.647,4.199 10.516,3.608 C6.780,2.906 3.354,4.237 0.341,7.570 L-0.015,7.962 L4.520,22.197 L5.619,20.810 C7.956,17.859 10.681,16.780 13.949,17.513 C17.326,18.267 20.273,17.763 22.740,16.031 L25.190,25.000 L27.002,24.517 ZM14.364,15.706 C10.897,14.933 7.846,15.834 5.276,18.392 L2.099,8.420 C4.575,5.853 7.219,4.875 10.164,5.428 C13.404,6.038 16.437,5.325 19.200,3.307 L21.916,13.015 L22.213,14.105 C20.063,15.881 17.490,16.408 14.364,15.706 Z"></path>
			</svg>