<svg xmlns="http://www.w3.org/2000/svg" width="23px" height="25px">
				<path fill-rule="evenodd" fill="#fff" d="M7.040,12.499 C7.040,12.088 6.950,11.702 6.771,11.355 C6.349,10.505 5.491,9.926 4.480,9.926 C3.072,9.926 1.920,11.084 1.920,12.499 C1.920,13.929 3.072,15.074 4.480,15.074 C5.478,15.074 6.349,14.507 6.771,13.658 C6.938,13.310 7.040,12.911 7.040,12.499 ZM18.520,17.924 C17.112,17.924 15.960,19.080 15.960,20.496 C15.960,21.925 17.112,23.070 18.520,23.070 C19.941,23.070 21.080,21.924 21.080,20.496 C21.080,19.080 19.941,17.924 18.520,17.924 ZM18.520,1.930 C17.112,1.930 15.960,3.088 15.960,4.503 C15.960,4.928 16.050,5.314 16.229,5.662 C16.651,6.497 17.521,7.076 18.520,7.076 C19.941,7.076 21.080,5.931 21.080,4.503 C21.080,3.088 19.941,1.930 18.520,1.930 ZM23.000,4.503 C23.000,6.986 21.003,9.007 18.520,9.007 C17.112,9.007 15.858,8.351 15.038,7.334 L8.819,11.394 C8.909,11.741 8.960,12.114 8.960,12.499 C8.960,12.886 8.909,13.259 8.819,13.606 L15.038,17.666 C15.870,16.636 17.125,15.993 18.520,15.993 C21.003,15.993 23.000,18.013 23.000,20.496 C23.000,22.979 21.003,25.000 18.520,25.000 C16.050,25.000 14.040,22.992 14.040,20.496 C14.040,20.110 14.091,19.737 14.181,19.390 L7.962,15.317 C7.155,16.347 5.888,17.003 4.480,17.003 C2.010,17.004 -0.000,14.996 -0.000,12.499 C-0.000,10.016 2.010,7.997 4.480,7.997 C5.888,7.997 7.155,8.653 7.962,9.682 L14.181,5.610 C14.091,5.263 14.040,4.889 14.040,4.503 C14.040,2.020 16.050,-0.000 18.520,-0.000 C21.003,-0.000 23.000,2.020 23.000,4.503 Z"></path>
			</svg>