<?xml version="1.0" encoding="utf-8"?>
<svg viewBox="101.946 106.893 196.109 186.161" width="196.109" height="186.161" xmlns="http://www.w3.org/2000/svg">
  <g transform="matrix(3.85, 0, 0, 3.85, 201.179993, 167.809998)" id="Layer_1">
    <path style="stroke: none; stroke-width: 1; stroke-dasharray: none; stroke-linecap: butt; stroke-dashoffset: 0; stroke-linejoin: miter; stroke-miterlimit: 4; fill: #fff; fill-rule: nonzero; opacity: 1;" transform=" translate(-26.31, -17.63)" d="M 27.4234962 17.1008472 c 0.1114311 0.3523693 0.2252731 0.8345547 0.136631 1.2066021 c -0.1267624 0.5320492 -0.322546 0.5440102 -0.8426056 0.6687336 c -0.7300034 0.1750736 -1.5197773 0.3952427 -1.6734982 -0.5227928 c -0.1297512 -0.7748814 -0.0132446 -1.6789818 0.7230473 -2.0681057 c 0.3780899 -0.1998177 0.6725788 -0.2888298 1.0633068 -0.1160831 c 0.1453896 0.0642776 0.6432171 0.5331078 0.6367149 0.4797115 c 0.1728477 1.4191189 2.4249611 1.4364815 2.25 0 c -0.2394619 -1.966033 -2.4268665 -3.2714825 -4.2901077 -2.6526546 c -2.1185284 0.7036142 -2.9302521 2.6818085 -2.5892277 4.8079071 c 0.3642826 2.2710934 2.3804779 2.6920605 4.3371506 2.2710876 c 0.9496498 -0.2043152 1.8513012 -0.6087341 2.3390503 -1.4938221 c 0.4911652 -0.891283 0.3757305 -2.2409134 0.0791664 -3.1787243 C 29.1580982 15.1270514 26.9851532 15.7146988 27.4234962 17.1008472 L 27.4234962 17.1008472 z" stroke-linecap="round"/>
  </g>
  <g transform="matrix(3.85, 0, 0, 3.85, 200.960007, 169.220001)" id="Layer_1">
    <path style="stroke: none; stroke-width: 1; stroke-dasharray: none; stroke-linecap: butt; stroke-dashoffset: 0; stroke-linejoin: miter; stroke-miterlimit: 4; fill-rule: nonzero; opacity: 1; fill: #fff;" transform=" translate(-26.25, -18)" d="M 25.3951855 10.0560446 c 1.5525684 -0.2314529 1.8989029 2.2039785 3.2465897 2.4850368 c 2.1373196 0.4457359 2.9001713 -3.0077686 2.8366604 1.5931149 c -0.0132275 0.9582796 -0.5436153 1.5084438 0.1817913 2.4415579 c 0.8251057 1.0613613 3.6492939 0.6595573 1.6545506 1.8728333 c -1.033947 0.6288853 -2.0177288 0.2870426 -2.5739441 1.4699001 c -0.6149216 1.307703 0.3807907 1.8729591 0.6894932 2.9676914 c 0.2198086 0.7794952 1.0923977 0.8794327 -0.3749733 0.8655396 c -0.3040104 -0.0028782 -1.055851 -0.6064892 -1.5361538 -0.6559181 c -1.4611626 -0.1503716 -1.6699123 0.5070877 -2.4694538 1.4405632 c -2.708189 3.1618538 -1.2360992 -0.561594 -3.3042812 -1.4839954 c -0.891571 -0.3976364 -1.6405048 0.5806866 -2.3128777 0.3855228 c -1.5531845 -0.4508305 -0.0311089 -2.3428726 -0.5481014 -3.4574661 c -0.2444134 -0.5269356 -0.7168694 -0.5710907 -1.1015377 -1.0012302 c -0.3020248 -0.1374092 -0.6040478 -0.2748165 -0.9060726 -0.4122238 c -0.3705006 -1.1741238 -0.0773067 -1.7365227 0.8795834 -1.6872005 c 0.6680031 -0.6530285 1.4974575 -0.6393871 1.6583805 -1.7867956 c 0.1858349 -1.3250275 -1.4629993 -2.0627499 -0.1777401 -2.4226789 c 0.4788361 -0.1340942 1.4723701 0.6010075 2.3303776 0.28545 c 1.5433636 -0.5676184 2.3453865 -2.0137196 2.7338581 -3.5060787 c 0.3650341 -1.4023247 -1.8045712 -2.0005507 -2.1696281 -0.5981388 c -0.5230083 2.0092049 -3.6452332 0.2244215 -4.890955 0.8853788 c -0.8726921 0.4630356 -1.542181 1.4519167 -1.5162373 2.4070816 c 0.0166073 0.6114035 0.8709431 1.2236385 0.8432655 1.7327271 c -0.0777225 1.4295998 -0.8232746 0.910449 -1.7319355 1.7476835 c -0.7693977 0.7089195 -1.1327038 1.7760715 -0.862854 2.8193607 c 0.3914528 1.5134277 2.4910545 1.7788754 2.7202377 2.888546 c 0.303896 1.4714279 -1.5668545 2.6353035 -0.1937943 4.1451111 c 1.0643883 1.170393 1.9738159 0.4194031 3.1919918 0.3785686 c 2.1013737 -0.0704384 1.5932884 1.6762047 3.2157135 2.2173157 c 1.7079945 0.5696507 2.5145016 -0.7745266 3.6564636 -1.5607033 c 1.4546661 -1.0014553 1.5079689 -0.1055489 3.0045261 -0.14674 c 1.0137691 -0.0279045 2.5250874 -1.2819519 2.8341999 -2.1372452 c 0.5121841 -1.4171867 -0.6617737 -1.1413288 -0.7948418 -2.2919998 c -0.2284737 -1.9756813 2.0095673 -1.3284264 2.7499542 -2.6965485 c 0.5052567 -0.9336376 0.226265 -2.4905243 -0.4702148 -3.2453613 c -0.3671455 -0.397912 -1.2301865 -0.461297 -1.4809265 -0.7535305 c -0.3923836 -0.4573202 -0.3026772 -0.7024012 -0.3749619 -1.3855429 c -0.2217674 -2.095787 -0.2291336 -2.6967583 -1.8349991 -4.2911282 c -0.2672424 -0.2653303 -0.7251015 -0.4242315 -1.0945644 -0.2893181 c -1.9385052 0.7078657 -1.3529339 0.7771635 -2.7353249 -0.5439997 c -1.07934 -1.0315347 -2.1964035 -1.0494504 -3.5694027 -0.8447676 C 23.3698921 8.0991735 23.976429 10.2675495 25.3951855 10.0560446 L 25.3951855 10.0560446 z" stroke-linecap="round"/>
  </g>
  <g transform="matrix(3.85, 0, 0, 3.85, 200, 183.160004)" id="Layer_1">
    <path style="stroke: none; stroke-width: 1; stroke-dasharray: none; stroke-linecap: butt; stroke-dashoffset: 0; stroke-linejoin: miter; stroke-miterlimit: 4; fill: #fff; fill-rule: nonzero; opacity: 1;" transform=" translate(-26, -21.62)" d="M 5.8587785 4.4420276 C 17.4464378 4.4364872 29.0439854 4.2903457 40.630661 4.4369135 c 1.2612305 0.0159545 3.1507149 -0.2955103 4.363945 0.1492624 c 3.0885315 1.1322622 3.8256989 2.6276398 3.8721886 5.568614 c 0.0472031 2.9862146 0.0862961 5.9725542 0.1166573 8.9589891 c 0.0303574 2.9864349 0.0519867 5.9729519 0.0655022 8.9595089 c 0.0208588 4.6094398 1.193325 9.2436218 -4.9181938 10.640213 c -5.4564781 1.2469025 -12.2859097 0.4500732 -17.8688717 0.4456291 c -2.98069 -0.0023727 -5.9612293 -0.0357208 -8.9414482 -0.0875282 c -3.1014328 -0.0539131 -6.9225416 0.4259491 -9.9339066 -0.2286797 c -1.8298235 -0.3977776 -3.0060835 -0.2453537 -3.974623 -2.4084511 c -0.6322196 -1.4119759 -0.4833133 -3.7696838 -0.5084863 -5.3947182 c -0.0421312 -2.7197781 -0.0065413 -5.4431553 -0.0072975 -8.1633549 c -0.0008502 -3.0588455 -0.0017004 -6.1176929 -0.0025508 -9.1765404 c -0.0003254 -1.1708765 -0.1817243 -2.5157557 -0.0010204 -3.6706161 C 3.308501 7.3709812 5.2616115 4.4156098 8.3940268 4.8262763 c 1.431344 0.1876526 1.417593 -2.0641506 0 -2.25 c -7.2470498 -0.950104 -7.7526741 3.123292 -7.7509604 9.2882729 c 0.0011904 4.2823849 0.0023808 8.5647717 0.0035713 12.8471565 c 0.0011096 3.9915886 -0.5052297 8.4242382 0.5956456 12.3209019 c 1.5950923 5.6459999 7.1727977 4.0988121 12.1041698 4.20895 c 9.9187403 0.2215233 19.8823891 0.3634605 29.7925606 -0.222477 c 1.9948654 -0.1179466 4.7425613 0.0328293 6.4296227 -1.3538818 c 2.4735489 -2.0331802 1.7487602 -5.7978058 1.741333 -8.6053448 c -0.0122871 -4.6457863 -0.04496 -9.2915173 -0.0980072 -13.9370174 c -0.0395622 -3.4644032 0.7675171 -8.2496576 -0.2939301 -11.6096134 c -1.685463 -5.3352466 -12.6871529 -3.3366737 -16.6912346 -3.3347595 c -9.456007 0.0045209 -18.912014 0.0090418 -28.368021 0.0135627 C 4.4110408 2.1927195 4.4085832 4.4427209 5.8587785 4.4420276 L 5.8587785 4.4420276 z" stroke-linecap="round"/>
  </g>
  <g transform="matrix(3.85, 0, 0, 3.85, 198.179993, 223.149994)" id="Layer_1">
    <path style="stroke: none; stroke-width: 1; stroke-dasharray: none; stroke-linecap: butt; stroke-dashoffset: 0; stroke-linejoin: miter; stroke-miterlimit: 4; fill: #fff; fill-rule: nonzero; opacity: 1;" transform=" translate(-25.53, -32.02)" d="M 1.7756487 33.2364349 c 15.8333063 -0.0624504 31.6666126 -0.124897 47.4999161 -0.1873436 c 1.4474983 -0.0057106 1.4503899 -2.255722 0 -2.25 c -15.8333054 0.0624466 -31.6666107 0.1248951 -47.4999161 0.1873417 C 0.3281496 30.9921417 0.3252587 33.2421532 1.7756487 33.2364349 L 1.7756487 33.2364349 z" stroke-linecap="round"/>
  </g>
  <g transform="matrix(3.85, 0, 0, 3.85, 202.009995, 284.970001)" id="Layer_1">
    <path style="stroke: none; stroke-width: 1; stroke-dasharray: none; stroke-linecap: butt; stroke-dashoffset: 0; stroke-linejoin: miter; stroke-miterlimit: 4; fill: #fff; fill-rule: nonzero; opacity: 1;" transform=" translate(-26.52, -48.09)" d="M 18.076519 49.8561249 c 3.9771881 -2.7349091 12.962822 -2.3797226 16.8746414 0.1492004 c 1.2195892 0.7884483 2.3487854 -1.1585159 1.1356163 -1.9428062 c -3.1236115 -2.0193634 -6.2210274 -2.1488113 -9.8643608 -2.0405464 c -3.2160072 0.0955658 -6.5366039 0.0038071 -9.2815151 1.8913422 C 15.7552986 48.7285919 16.8792629 50.6794167 18.076519 49.8561249 L 18.076519 49.8561249 z" stroke-linecap="round"/>
  </g>
  <g transform="matrix(3.85, 0, 0, 3.85, 222.470001, 270.179993)" id="Layer_1">
    <path style="stroke: none; stroke-width: 1; stroke-dasharray: none; stroke-linecap: butt; stroke-dashoffset: 0; stroke-linejoin: miter; stroke-miterlimit: 4; fill: #fff; fill-rule: nonzero; opacity: 1;" transform=" translate(-31.84, -44.25)" d="M 30.5913906 41.3501511 c 0.2981377 2.0328598 0.3404274 4.0776863 0.1863708 6.124794 c -0.1086922 1.4442787 2.1418324 1.4373131 2.2499981 0 c 0.1700974 -2.2602272 0.061924 -4.4819145 -0.2667427 -6.7229347 C 32.5516777 39.3246269 30.3833237 39.9314537 30.5913906 41.3501511 L 30.5913906 41.3501511 z" stroke-linecap="round"/>
  </g>
  <g transform="matrix(3.85, 0, 0, 3.85, 184.070007, 270.75)" id="Layer_1">
    <path style="stroke: none; stroke-width: 1; stroke-dasharray: none; stroke-linecap: butt; stroke-dashoffset: 0; stroke-linejoin: miter; stroke-miterlimit: 4; fill: #fff; fill-rule: nonzero; opacity: 1;" transform=" translate(-21.86, -44.39)" d="M 20.7337856 40.8949394 c 0 2.3333321 0 4.6666641 0 7 c 0 1.4477654 2.25 1.4501648 2.25 0 c 0 -2.3333359 0 -4.6666679 0 -7 C 22.9837856 39.4471703 20.7337856 39.4447708 20.7337856 40.8949394 L 20.7337856 40.8949394 z" stroke-linecap="round"/>
  </g>
</svg>