<svg height="512pt" viewBox="0 0 512 512" width="512pt" xmlns="http://www.w3.org/2000/svg"><path d="m64 480h-32v-32h16v16h16zm0 0"/><path d="m192 480h-32v-16h16v-16h16zm0 0"/><path d="m192 352h-16v-16h-16v-16h32zm0 0"/><path d="m48 352h-16v-32h32v16h-16zm0 0"/><path d="m352 208h32v16h-32zm0 0"/><path d="m400 208h32v16h-32zm0 0"/><path d="m480 376h-32v-16h16v-16h16zm0 0"/><path d="m336 464.273438v15.453124l94.671875 32.273438h81.328125v-16h-72v-16h72v-16h-72v-16h72v-16h-81.328125zm56 17.597656-29.070312-9.871094 29.070312-9.910156zm32 10.929687-16-5.449219v-30.71875l16-5.449218zm0 0"/><path d="m104 384c17.671875 0 32-14.328125 32-32s-14.328125-32-32-32-32 14.328125-32 32 14.328125 32 32 32zm0-48c8.835938 0 16 7.164062 16 16s-7.164062 16-16 16-16-7.164062-16-16 7.164062-16 16-16zm0 0"/><path d="m80 411.3125 16.6875 16.6875-14.34375 14.34375 11.3125 11.3125 65.480469-65.480469 18.464843 24.625 12.796876-9.601562-29.535157-39.375-52.863281 52.863281-28-28-37.65625 37.65625 11.3125 11.3125zm0 0"/><path d="m427.3125 0h-235.3125v64h-192v192h192v32h-192v224h224v-17.449219c5.28125.941407 10.636719 1.425781 16 1.449219 49.875-.074219 91.402344-38.300781 95.59375-88h176.40625v-323.3125zm4.6875 27.3125 52.6875 52.6875h-52.6875zm-130.984375 52.6875-133.015625 86.457031-133.015625-86.457031zm162.984375 112v16h-16v16h16v16h-128v-48zm-128-16v-16h128v16zm128 80v16h-160v-16zm-144-24.648438-99.734375-79.785156 99.734375-64.824218zm-304-144.609374 99.734375 64.800781-99.734375 79.808593zm14.808594 153.257812 99.054687-79.246094 38.136719 24.789063 38.136719-24.800781 99.054687 79.257812zm177.191406 256h-192v-192h192zm32-16c-5.382812-.074219-10.746094-.699219-16-1.863281v-41.601563c5.03125 2.261719 10.484375 3.441406 16 3.464844 19-.023438 35.371094-13.386719 39.199219-32h40.402343c-4.15625 40.855469-38.535156 71.953125-79.601562 72zm0-104c13.253906 0 24 10.746094 24 24s-10.746094 24-24 24c-5.960938-.035156-11.683594-2.34375-16-6.457031v-35.085938c4.316406-4.113281 10.039062-6.421875 16-6.457031zm-16-12.566406v-41.601563c5.257812-1.15625 10.617188-1.769531 16-1.832031 20.851562 0 40.875 8.167969 55.777344 22.761719l-31.050782 26.039062c-11.464843-9.355469-27.230468-11.433593-40.726562-5.367187zm55.199219 28.566406c-.84375-3.832031-2.25-7.515625-4.175781-10.9375l31.074218-26.070312c7.53125 11.007812 12.171875 23.734374 13.496094 37.007812zm216.800781 0h-160.40625c-4.191406-49.699219-45.71875-87.925781-95.59375-88-5.363281.023438-10.71875.507812-16 1.449219v-17.449219h-16v-32h80v32h192v-144h-144v-80h-128v-48h208v80h80zm0 0"/></svg>