<svg id="Capa_1" enable-background="new 0 0 512 512" height="512" viewBox="0 0 512 512" width="512" xmlns="http://www.w3.org/2000/svg"><g><g><path d="m480.381 34.461h-200.069c-17.435 0-31.619 14.184-31.619 31.619v132.992h-167.816c-7.727 0-14.013 6.286-14.013 14.013v199.002h-16.221v-211.546c0-9.754 7.936-17.69 17.69-17.69h152.611c4.143 0 7.5-3.358 7.5-7.5s-3.357-7.5-7.5-7.5h-152.611c-18.025 0-32.69 14.665-32.69 32.69v211.546h-15.39c-11.167 0-20.253 9.085-20.253 20.253 0 24.923 20.276 45.199 45.199 45.199h380.986c24.923 0 45.199-20.276 45.199-45.199 0-11.167-9.086-20.252-20.253-20.252h-15.391v-151.308c0-4.142-3.357-7.5-7.5-7.5s-7.5 3.358-7.5 7.5v151.307h-16.221v-178.869h75.86c17.435 0 31.619-14.185 31.619-31.62v-135.517c.002-17.435-14.183-31.62-31.617-31.62zm-398.517 179.611h169.399c4.849 11.249 16.043 19.146 29.05 19.146h4.159v45.829c0 11.392 14.327 16.491 21.514 7.627l43.352-53.457h40.184v178.869h-307.658zm203.869 213.015c-2.832 6.031-8.946 10.226-16.038 10.226h-68.006c-7.092 0-13.207-4.195-16.039-10.226zm165.399 0c2.896 0 5.253 2.356 5.253 5.253 0 16.652-13.547 30.199-30.199 30.199h-380.987c-16.652 0-30.199-13.548-30.199-30.2 0-2.896 2.356-5.252 5.253-5.252h149.587c3.401 14.441 16.385 25.226 31.849 25.226h68.006c15.464 0 28.448-10.785 31.848-25.226zm45.868-225.489c0 9.164-7.455 16.62-16.619 16.62h-131.479c-4.267 0-8.254 1.9-10.941 5.214l-38.489 47.46v-38.587c0-7.768-6.319-14.087-14.088-14.087h-5.071c-9.164 0-16.619-7.456-16.619-16.62v-135.517c0-9.164 7.455-16.619 16.619-16.619h200.068c9.164 0 16.619 7.456 16.619 16.619z"/><path fill="#0db1f4" d="m462.994 107.751-71.503-21.426c-7.291-2.185-14.998-2.185-22.289 0l-71.503 21.426c-4.405 1.32-7.365 5.297-7.365 9.896s2.96 8.575 7.365 9.896l16.209 4.857v30.197c0 11.244 9.146 20.391 20.39 20.391h92.098c11.243 0 20.39-9.147 20.39-20.391v-30.197l8.432-2.527v10.806c0 4.142 3.357 7.5 7.5 7.5s7.5-3.358 7.5-7.5c.001-.101.143-22.928.143-23.032-.002-4.599-2.962-8.575-7.367-9.896zm-31.209 54.846c0 2.972-2.418 5.391-5.39 5.391h-92.098c-2.972 0-5.39-2.418-5.39-5.391v-25.702l40.294 12.074c7.289 2.184 14.998 2.185 22.289 0l40.294-12.074v25.702zm-44.598-27.997c-4.475 1.341-9.205 1.341-13.68 0-14.576-4.368-42.987-12.881-56.574-16.952l56.574-16.953c4.475-1.341 9.205-1.341 13.68 0l56.574 16.953c-13.056 3.912-41.461 12.423-56.574 16.952z"/><path d="m112.333 286.395h137.334c4.143 0 7.5-3.358 7.5-7.5s-3.357-7.5-7.5-7.5h-137.334c-4.143 0-7.5 3.358-7.5 7.5s3.357 7.5 7.5 7.5z"/><path d="m112.333 326.744h137.334c4.143 0 7.5-3.358 7.5-7.5s-3.357-7.5-7.5-7.5h-137.334c-4.143 0-7.5 3.358-7.5 7.5s3.357 7.5 7.5 7.5z"/><path d="m360.637 352.093h-248.304c-4.143 0-7.5 3.358-7.5 7.5s3.357 7.5 7.5 7.5h248.304c4.143 0 7.5-3.358 7.5-7.5s-3.358-7.5-7.5-7.5z"/></g></g></svg>