<svg id="Capa_1" enable-background="new 0 0 510.416 510.416" height="512" viewBox="0 0 510.416 510.416" width="512" xmlns="http://www.w3.org/2000/svg"><g><g><g><path d="m254.631 510.416c-2.075 0-4.15-.516-6.041-1.546l-56.458-30.771c-82.677-45.061-135.134-131.535-136.9-225.678l-2.772-147.795c-.11-5.891 3.562-11.128 9.136-13.033l47.138-16.121c46.953-16.058 91.326-38.696 131.886-67.286l9.187-6.476c3.232-2.279 7.574-2.279 10.807 0l9.187 6.476c40.56 28.59 84.933 51.229 131.886 67.286l47.14 16.122c5.572 1.904 9.244 7.142 9.134 13.032l-2.764 147.354c-.806 42.852-12.248 85.301-33.091 122.758-2.014 3.62-6.583 4.92-10.2 2.907-3.62-2.014-4.921-6.581-2.907-10.2 19.652-35.318 30.441-75.343 31.2-115.746l2.743-146.264-46.108-15.77c-48.302-16.52-93.949-39.808-135.675-69.22l-5.947-4.192-5.947 4.192c-41.726 29.412-87.373 52.7-135.675 69.22l-46.108 15.77 2.752 146.705c1.665 88.766 51.126 170.302 129.08 212.789l55.326 30.153 55.917-30.289c32.395-17.548 59.874-41.507 81.674-71.212 2.451-3.339 7.147-4.057 10.484-1.609 3.339 2.451 4.06 7.146 1.609 10.484-23.122 31.505-52.266 56.915-86.623 75.526l-57.052 30.903c-1.888 1.021-3.953 1.531-6.018 1.531z"/></g><g><path  d="m254.672 474.699c-1.235 0-2.471-.305-3.589-.915l-43.637-23.784c-72.603-39.569-118.669-115.507-120.221-198.18l-2.417-128.845c-.061-3.258 1.989-6.183 5.072-7.237l29.207-9.988c46.696-15.97 91.076-38.119 131.908-65.834 2.543-1.727 5.881-1.727 8.424 0 18.505 12.561 38.051 24.148 58.095 34.44 3.685 1.892 5.138 6.413 3.246 10.098-1.893 3.685-6.414 5.136-10.098 3.246-19.071-9.793-37.703-20.727-55.455-32.542-40.771 27.146-84.907 48.931-131.267 64.785l-24.032 8.219 2.314 123.377c1.45 77.296 44.52 148.295 112.4 185.292l40.059 21.832 40.629-22.009c68.178-36.93 111.435-108.031 112.889-185.556l2.307-122.937-24.031-8.219c-15.59-5.331-31.235-11.466-46.501-18.232-3.787-1.679-5.496-6.109-3.817-9.896 1.678-3.788 6.107-5.498 9.896-3.817 14.866 6.59 30.1 12.562 45.276 17.752l29.206 9.988c3.083 1.055 5.133 3.979 5.072 7.237l-2.409 128.404c-1.556 82.918-47.821 158.965-120.742 198.464l-44.212 23.95c-1.114.605-2.344.907-3.572.907z"/></g></g><g><path fill="#0db1f4" d="m255.813 379.333c-3.553 0-7.106-1.229-10.006-3.688l-60.496-51.33c-3.374-2.863-4.569-7.398-3.044-11.553s5.37-6.839 9.796-6.839h40.358l12.288-35.415h-54.627c-3.535 0-6.855-1.73-8.881-4.628s-2.51-6.609-1.296-9.929l21.438-58.593c1.423-3.888 5.729-5.891 9.62-4.466 3.89 1.423 5.89 5.729 4.466 9.62l-19.389 52.995h59.21c2.427 0 4.704 1.175 6.111 3.152 1.406 1.978 1.77 4.514.975 6.807l-17.493 50.415c-1.048 3.018-3.892 5.041-7.086 5.041h-33.259l51.013 43.283c.174.148.43.148.604 0l51.013-43.283h-35.484c-2.444 0-4.735-1.191-6.139-3.191-1.404-2.001-1.745-4.561-.914-6.858l28.243-78.119h-25.832c-2.587 0-5.025-1.26-6.523-3.369-1.497-2.109-1.882-4.827-1.028-7.269l25.472-73.114h-49.915l-8.354 22.832c-1.422 3.89-5.727 5.894-9.62 4.466-3.89-1.423-5.89-5.729-4.466-9.62l9.387-25.66c1.534-4.196 5.569-7.018 10.041-7.018h58.989c3.455 0 6.714 1.682 8.716 4.498 2.002 2.817 2.519 6.447 1.382 9.711l-24.229 69.543h24.341c2.973 0 5.767 1.453 7.475 3.886 1.708 2.434 2.124 5.556 1.114 8.352l-27.453 75.932h37.234c4.425 0 8.271 2.685 9.795 6.839 1.525 4.154.33 8.689-3.044 11.553l-60.495 51.329c-2.899 2.459-6.454 3.688-10.008 3.688z"/></g></g></svg>