<svg id="Capa_1" enable-background="new 0 0 512 512" height="512" viewBox="0 0 512 512" width="512" xmlns="http://www.w3.org/2000/svg"><g><path d="m511.888 371.872c-.242-5.563-3.546-10.533-8.581-12.911l-15.985-7.547 11.152-13.768c3.525-4.351 4.333-10.303 2.095-15.435-9.568-21.951-24.848-41.111-44.186-55.41-4.509-3.335-10.503-3.876-15.537-1.4l-15.853 7.796-3.798-17.28c-1.202-5.471-5.353-9.816-10.763-11.268-5.719-1.535-11.544-2.692-17.433-3.468v-226.181c0-8.284-6.716-15-15-15h-362.999c-8.284 0-15 6.716-15 15v309.999c0 8.284 6.716 15 15 15h238.426l9.247 11.416-15.985 7.547c-7.119 3.125-9.25 10.921-8.693 18.102 0 22.315 5.483 44.458 15.857 64.036 2.602 4.91 7.702 7.977 13.253 7.977h.119l17.688-.141-4.071 17.203c-1.29 5.448.563 11.161 4.804 14.816 18.237 15.721 40.323 26.366 63.87 30.786 5.504 1.038 11.116-1.082 14.57-5.484l10.913-13.914 10.914 13.914c3.448 4.419 9.146 6.519 14.57 5.484 23.546-4.42 45.632-15.065 63.87-30.785 4.241-3.655 6.094-9.369 4.804-14.817l-4.071-17.203 17.687.141h.119c5.55 0 10.651-3.066 13.253-7.977 10.373-19.576 15.856-41.72 15.856-64.037 0-1.741-.038-3.487-.112-5.191zm-148.888-341.872v30h-333v-30zm-333 60h333v150.538c-7.936.693-15.782 2.057-23.438 4.111-5.41 1.451-9.561 5.797-10.763 11.268l-3.798 17.28-15.853-7.796c-5.032-2.475-11.027-1.935-15.537 1.4-15.658 11.578-28.653 26.345-38.112 43.198h-225.499zm443.47 329-27.269-.216c-.039 0-.079 0-.118 0-4.563 0-8.881 2.077-11.728 5.648-2.872 3.602-3.931 8.323-2.869 12.807l6.28 26.532c-10.322 7.493-21.897 13.078-34.134 16.469l-16.832-21.461c-2.844-3.625-7.195-5.742-11.803-5.742s-8.959 2.117-11.803 5.742l-16.832 21.461c-12.236-3.391-23.813-8.976-34.134-16.469l6.28-26.532c1.062-4.483.003-9.205-2.869-12.807-2.847-3.571-7.164-5.648-11.728-5.648-.039 0-.079 0-.118 0l-27.269.216c-4.957-11.659-7.823-24.23-8.415-36.977l24.651-11.639c4.164-1.967 7.194-5.736 8.22-10.227 1.024-4.489-.069-9.201-2.969-12.779l-17.177-21.205c6.039-11.179 14.057-21.226 23.646-29.638l24.445 12.021c4.135 2.032 8.976 2.054 13.126.054 4.152-1.998 7.154-5.795 8.144-10.295l5.854-26.639c12.443-2.23 25.449-2.23 37.893 0l5.854 26.639c.989 4.5 3.991 8.297 8.144 10.295 4.151 1.998 8.99 1.979 13.126-.054l24.445-12.021c9.59 8.411 17.607 18.459 23.646 29.638l-17.177 21.205c-2.899 3.578-3.993 8.29-2.969 12.779 1.025 4.49 4.056 8.26 8.22 10.227l24.651 11.639c-.589 12.748-3.455 25.319-8.412 36.977z"/><path d="m374.997 330.999c-24.813 0-45 20.186-45 45 0 24.813 20.187 45 45 45s45-20.186 45-45-20.186-45-45-45zm0 59.999c-8.271 0-15-6.728-15-15s6.729-15 15-15 15 6.728 15 15-6.728 15-15 15z"/><path d="m135.356 145.893c-5.857-5.857-15.355-5.857-21.213 0l-36.5 36.5c-5.858 5.857-5.858 15.355 0 21.213l36.5 36.5c2.929 2.929 6.768 4.394 10.606 4.394s7.678-1.465 10.606-4.394c5.858-5.857 5.858-15.355 0-21.213l-25.894-25.893 25.894-25.893c5.86-5.859 5.86-15.357.001-21.214z"/><path d="m257.644 240.105c2.929 2.929 6.768 4.394 10.606 4.394s7.678-1.465 10.606-4.394l36.5-36.5c5.858-5.857 5.858-15.355 0-21.213l-36.5-36.5c-5.857-5.857-15.355-5.857-21.213 0s-5.858 15.355 0 21.213l25.894 25.893-25.894 25.893c-5.858 5.859-5.858 15.357.001 21.214z"/><path d="m216.341 120.66c-7.99-2.187-16.239 2.522-18.424 10.514l-31.636 115.742c-5.079 18.888 23.596 26.872 28.938 7.91l31.636-115.742c2.184-7.992-2.523-16.241-10.514-18.424z"/></g></svg>