<svg xmlns="http://www.w3.org/2000/svg" width="28px" height="28px">
				<path fill-rule="evenodd" fill="#fff" d="M10.553,5.996 L28.002,5.996 L26.404,19.854 L8.032,19.854 L4.204,1.863 L0.005,1.863 L0.005,-0.001 L5.693,-0.001 L9.521,17.990 L24.763,17.990 L25.930,7.859 L10.553,7.859 L10.553,5.996 ZM10.552,21.389 C12.355,21.389 13.821,22.872 13.821,24.694 C13.821,26.517 12.355,28.000 10.552,28.000 C8.749,28.000 7.282,26.517 7.282,24.694 C7.282,22.872 8.749,21.389 10.552,21.389 ZM10.552,26.136 C11.338,26.136 11.978,25.489 11.978,24.694 C11.978,23.899 11.338,23.253 10.552,23.253 C9.766,23.253 9.126,23.899 9.126,24.694 C9.126,25.489 9.766,26.136 10.552,26.136 ZM23.696,21.389 C25.499,21.389 26.966,22.872 26.966,24.694 C26.966,26.517 25.499,28.000 23.696,28.000 C21.894,28.000 20.427,26.517 20.427,24.694 C20.427,22.872 21.894,21.389 23.696,21.389 ZM23.696,26.136 C24.482,26.136 25.122,25.489 25.122,24.694 C25.122,23.899 24.482,23.253 23.696,23.253 C22.910,23.253 22.271,23.899 22.271,24.694 C22.271,25.489 22.910,26.136 23.696,26.136 Z"></path>
			</svg>