<svg xmlns="http://www.w3.org/2000/svg" width="37px" height="25px">
				<path fill-rule="evenodd" fill="#fff" d="M31.823,13.372 L31.823,11.556 L36.988,11.556 L36.988,13.372 L31.823,13.372 ZM30.547,7.440 L33.570,7.440 L33.570,9.256 L30.547,9.256 L30.547,7.440 ZM34.862,18.063 L30.091,18.063 L30.091,16.248 L34.862,16.248 L34.862,18.063 ZM21.807,25.009 C21.366,25.009 20.939,24.928 20.524,24.790 L20.519,24.804 L20.424,24.763 C20.398,24.754 20.374,24.740 20.349,24.731 L1.264,16.647 L1.122,16.471 C1.007,16.331 0.006,15.026 0.006,12.418 C0.006,10.137 1.051,8.700 1.096,8.640 L1.242,8.442 L19.944,0.458 L19.950,0.470 C20.539,0.177 21.159,0.009 21.807,0.009 C25.647,0.009 28.655,5.500 28.655,12.509 C28.655,19.519 25.647,25.009 21.807,25.009 ZM4.754,8.918 L2.452,9.902 C2.244,10.273 1.829,11.170 1.829,12.418 C1.829,13.935 2.241,14.830 2.436,15.170 L4.960,16.239 C3.939,13.257 4.265,10.642 4.754,8.918 ZM7.059,7.934 C6.571,8.938 5.042,12.767 7.387,17.267 L16.897,21.296 C15.693,19.054 14.959,15.968 14.959,12.509 C14.959,9.057 15.691,5.978 16.890,3.737 L7.059,7.934 ZM17.842,12.509 C17.842,11.329 17.301,10.557 16.880,10.457 C16.819,11.115 16.782,11.796 16.782,12.509 C16.782,13.222 16.819,13.905 16.880,14.562 C17.301,14.462 17.842,13.689 17.842,12.509 ZM21.807,1.825 C19.908,1.825 17.910,4.461 17.128,8.666 C18.573,8.889 19.665,10.487 19.665,12.509 C19.665,14.532 18.573,16.129 17.128,16.353 C17.777,19.841 19.261,22.245 20.833,22.964 L20.961,23.018 C21.242,23.129 21.525,23.193 21.807,23.193 C24.233,23.193 26.832,18.899 26.832,12.509 C26.832,6.119 24.233,1.825 21.807,1.825 Z"></path>
			</svg>