 <svg id="svg34" clip-rule="evenodd" fill-rule="evenodd" height="512" stroke-linejoin="round"
                            stroke-miterlimit="2" viewBox="0 0 64 64" width="512" xmlns="http://www.w3.org/2000/svg"
                            xmlns:svg="http://www.w3.org/2000/svg">
                            <path id="path4"
                              d="m16.99968 37.000328c0-.552134-.448-1.000114-1-1.000114h-12c-.552 0-1 .44798-1 1.000114v13.99991c0 .552134.448 1.000114 1 1.000114h12c.552 0 1-.44798 1-1.000114zm-12 1.000114v11.999682h10v-11.999682z"
                              stroke-width=".669" />
                            <path id="path8"
                              d="m34.99968 29.000028c0-.552614-.448-1.000513-1-1.000513h-12c-.552 0-1 .447899-1 1.000513v21.999855c0 .552614.448.999633 1 .999633h12c.552 0 1-.447019 1-.999633zm-12 .999633v20.000589h10v-20.000589z"
                              stroke-width=".839" />
                            <path id="circle12"
                              d="m33.49968 55a1 1 0 0 1 -1 1 1 1 0 0 1 -1-1 1 1 0 0 1 1-1 1 1 0 0 1 1 1z"
                              stroke-width=".2" />
                            <path id="path16"
                              d="m24.49924 55.999h4.00002c.551848 0 .999974-.448.999974-1s-.448126-1-.999974-1h-4.00002c-.551973 0-.999974.448-.999974 1s.448001 1 .999974 1z"
                              stroke-width=".354" />
                            <path id="path20"
                              d="m40.99968 21.99763v29.00015c0 .551972-.448.99955-1 .99955s-1-.447578-1-.99955v-29.9997c0-.551972.448-1.00075 1-1.00075h12c.552 0 1 .448778 1 1.00075v14.99925c0 .551972-.448 1.00075-1 1.00075s-1-.448778-1-1.00075v-13.9997z"
                              stroke-width=".98" />
                            <path id="path24"
                              d="m43.58568 10-4.293-4.293c-.286-.286-.372-.716-.217-1.09.155-.373.52-.617.924-.617h10c.552 0 1 .448 1 1v10c0 .404-.244.769-.617.924-.374.155-.804.069-1.09-.217l-4.293-4.293-12.293 12.293c-.187.188-.442.293-.707.293h-11.586l-7.707 7.707c-.187.188-.442.293-.707.293h-6c-.552 0-1-.448-1-1s.448-1 1-1h5.586l7.707-7.707c.187-.188.442-.293.707-.293h11.586zm5.414 2.586v-6.586h-6.586z" />
                            <path fill="#0db1f4" id="path26"
                              d="m48.677763 53.751-3.973198 3.957c-.286.286-.715733.37-1.088999.215-.373267-.155-.616734-.519-.616734-.923v-23c0-.405.2442-.769.617467-.924.374-.155.803733-.069 1.089733.217l16.000592 16c.286.286.371067.716.216334 1.09-.154734.373-.5192.617-.924.617h-5.483131l2.402399 5.606c.209.487.0015 1.051-.471533 1.288l-4.000331 2c-.2464.124-.533134.14-.792.044-.258867-.095-.467133-.293-.574933-.546zm8.907063-4.751-12.585461-12.586v18.178l3.313932-3.301c.2354-.234.571266-.336.896866-.273.3256.064.599133.285.728933.59l2.563732 6.022 2.205866-1.103-2.628999-6.133c-.132-.309-.100467-.664.08433-.945.185537-.28.49867-.449.83527-.449z"
                              stroke-width=".856" /></svg>