<svg xmlns="http://www.w3.org/2000/svg" width="36px" height="24px">
				<path fill-rule="evenodd" fill="#fff" d="M35.659,6.897 L35.303,7.167 L35.361,7.212 C34.680,8.154 34.321,9.267 34.321,10.433 C34.321,11.280 34.514,11.480 34.878,12.226 C35.225,12.104 35.624,12.219 35.851,12.545 C36.131,12.947 36.046,13.509 35.659,13.801 L20.304,23.495 C19.874,23.821 19.291,23.994 18.725,23.994 C18.402,23.994 18.084,23.938 17.803,23.821 L1.534,18.559 L1.389,18.359 C0.482,17.104 0.002,16.236 0.002,14.675 C0.002,13.115 0.482,11.628 1.389,10.374 L1.391,10.375 C1.442,10.304 1.501,10.242 1.571,10.188 L16.927,0.492 C17.576,-0.000 18.674,-0.148 19.427,0.167 L35.473,5.335 C35.765,5.456 35.971,5.733 36.009,6.058 C36.047,6.383 35.915,6.704 35.659,6.897 ZM18.785,1.835 C18.753,1.821 18.665,1.792 18.511,1.792 C18.258,1.792 18.039,1.871 17.943,1.944 L3.849,10.683 L18.443,15.250 C18.475,15.261 18.565,15.291 18.719,15.291 C18.972,15.291 19.192,15.212 19.291,15.137 L33.383,6.400 L18.785,1.835 ZM32.595,10.431 C32.595,9.991 32.638,9.554 32.714,9.126 L20.304,16.591 C19.886,16.908 19.309,17.089 18.720,17.089 C18.719,17.089 18.719,17.089 18.719,17.089 C18.390,17.089 18.074,17.031 17.803,16.918 L2.412,12.020 C1.965,12.830 1.727,13.734 1.727,14.674 C1.727,15.761 2.039,16.183 2.632,17.080 L18.443,22.153 C18.663,22.241 19.099,22.186 19.291,22.042 L33.450,13.252 C32.891,12.199 32.595,11.648 32.595,10.431 ZM17.992,4.410 L28.319,7.413 L26.714,8.528 L16.387,5.525 L17.992,4.410 Z"></path>
			</svg>