<svg height="512" viewBox="0 0 24 24" width="512" xmlns="http://www.w3.org/2000/svg"><path fill="#0db1f4" d="m3 19a1 1 0 0 0 .707-.293l2.42-2.42 2.318 1.545a1 1 0 0 0 1.262-.125l3-3a1 1 0 0 0 -1.414-1.414l-2.42 2.42-2.318-1.545a1 1 0 0 0 -1.262.125l-3 3a1 1 0 0 0 .707 1.707z"/><path  d="m21 2h-18a1 1 0 0 0 -1 1v9a1 1 0 0 0 2 0v-4h16v12h-17a1 1 0 0 0 0 2h18a1 1 0 0 0 1-1v-18a1 1 0 0 0 -1-1zm-17 2h16v2h-16z"/><path fill="#0db1f4" d="m14.707 12.707 1-1a1 1 0 0 0 -1.414-1.414l-1 1a1 1 0 1 0 1.414 1.414z"/></svg>