<svg height="512pt" viewBox="0 0 512 512" width="512pt" xmlns="http://www.w3.org/2000/svg"><path fill="#fff" d="m468.277344 392.949219h-50.148438v-14.660157c13.800782-10.355468 24.09375-24.609374 25.355469-41.753906 14.945313-2.460937 26.382813-15.460937 26.382813-31.09375v-1.410156c0-6.234375-2.816407-11.816406-7.234376-15.5625.832032-4.519531 1.519532-9.066406 2.050782-13.609375h34.078125c4.140625 0 7.5-3.355469 7.5-7.5v-34.1875c0-4.144531-3.359375-7.5-7.5-7.5h-34.074219c-2.914062-25.03125-10.226562-49.050781-21.777344-71.496094-1.898437-3.683593-6.417968-5.128906-10.101562-3.234375-3.683594 1.894532-5.132813 6.417969-3.238282 10.101563 11.707032 22.734375 18.722657 47.210937 20.855469 72.75.324219 3.886719 3.574219 6.875 7.472657 6.875h33.363281v19.191406h-33.363281c-3.898438 0-7.148438 2.988281-7.472657 6.875-.46875 5.613281-1.203125 11.265625-2.171875 16.878906h-.875l.1875-2.558593c1.335938-18.089844-4.730468-36.074219-16.648437-49.6875-8.820313-82.214844-74.710938-147.804688-157.066407-156.140626-4.417968-.441406-8.253906 3.015626-8.253906 7.460938v23.144531h-19.191406v-23.144531c0-4.433594-3.835938-7.90625-8.257812-7.460938-82.355469 8.339844-148.242188 73.925782-157.066407 156.140626-11.917969 13.613281-17.980469 31.601562-16.648437 49.6875l.1875 2.558593h-.875c-.964844-5.613281-1.703125-11.265625-2.171875-16.878906-.324219-3.882813-3.574219-6.875-7.472657-6.875h-33.363281v-19.1875h33.363281c3.898438 0 7.148438-2.992187 7.472657-6.875 7.949219-95.167969 82.789062-170.011719 177.949219-177.960937 3.886718-.324219 6.875-3.574219 6.875-7.476563v-33.359375h19.199218v33.359375c0 3.902344 2.992188 7.148437 6.875 7.476563 53.800782 4.492187 103.824219 31.550781 137.242188 74.238281 2.550781 3.261719 7.265625 3.835937 10.527344 1.28125 3.261718-2.550781 3.835937-7.265625 1.28125-10.527344-34.554688-44.140625-85.609376-72.761719-140.925782-79.25v-34.078125c0-4.140625-3.355468-7.5-7.5-7.5h-34.199218c-4.140626 0-7.5 3.359375-7.5 7.5v34.074219c-96.335938 11.285156-172.785157 87.609375-184.082032 184.097656h-34.078125c-4.140625 0-7.5 3.355469-7.5 7.5v34.1875c0 4.144531 3.359375 7.5 7.5 7.5h34.078125c.53125 4.542969 1.21875 9.089844 2.050782 13.609375-4.417969 3.746094-7.234376 9.328125-7.234376 15.5625v1.410156c0 15.632813 11.4375 28.632813 26.382813 31.09375 1.261719 17.148438 11.558594 31.402344 25.355469 41.753906v14.660157h-50.148438c-24.109375 0-43.722656 19.613281-43.722656 43.722656v67.828125c0 4.140625 3.359375 7.5 7.5 7.5h497c4.140625 0 7.5-3.359375 7.5-7.5v-67.828125c0-24.109375-19.613281-43.722656-43.722656-43.722656zm-61.882813-24.753907c-9.699219 6.636719-19.417969 9.84375-25.3125 10.242188-.996093.054688-1.394531.054688-2.386719 0-5.894531-.398438-15.613281-3.605469-25.3125-10.242188-11.132812-7.617187-21.128906-19.167968-22.109374-32.511718l-1.882813-25.527344c9.878906-1.742188 18.34375-7.625 23.542969-15.78125 19.4375-6.550781 37.75-16.761719 53.523437-29.835938l2.34375 10.390626c2.644531 11.734374 11.253907 21.207031 22.320313 25.230468l-2.613282 35.523438c-.984374 13.34375-10.984374 24.894531-22.113281 32.511718zm-150.394531 27.234376c-24.066406-13.269532-17.65625-9.734376-27.921875-15.394532.066406-.796875.046875-.242187.046875-12.066406 9.832031 4.894531 19.816406 7.769531 27.875 7.769531s18.042969-2.878906 27.875-7.769531c0 12-.019531 11.300781.046875 12.066406-10.273437 5.664063-3.875 2.136719-27.921875 15.394532zm7.328125 28.085937-.988281 7.734375h-12.679688l-.988281-7.734375 7.328125-8.234375zm-7.328125-62.773437c-17.800781 0-54.96875-21.746094-57.070312-50.296876l-1.527344-20.726562c9.140625-5.144531 16.222656-13.617188 19.550781-23.617188 25.886719 2.992188 50.730469-8.292968 65.78125-28.6875 3.019531 4.101563 6.464844 7.886719 10.339844 11.300782-1.585938 16.773437 6.746093 32.746094 21.523437 40.992187l-1.527344 20.738281c-2.101562 28.550782-39.269531 50.296876-57.070312 50.296876zm-87.410156-86.804688c0-4.058594 3.300781-7.363281 7.359375-7.363281h4.707031c.804688 10.929687 1.589844 21.585937 2.078125 28.214843-8.1875-2.554687-14.144531-10.207031-14.144531-19.222656zm26.605468 66.867188c5.011719 6.953124 11.140626 12.875 17.929688 17.9375v14.144531c-3.652344-.273438-7.34375 1.347656-9.523438 4.503906h-32.089843c11.59375-9.023437 21.234375-21.5 23.683593-36.585937zm122.601563-94.492188-1.894531 25.703125c-5.722656-5.753906-8.800782-13.773437-7.847656-22.34375.5-4.472656-1.25-8.914063-4.683594-11.882813-4.972656-4.300781-9.085938-9.347656-12.285156-15.019531 3.601562-8.535156 5.597656-17.910156 5.597656-27.742187 14.644531 12.816406 22.582031 31.328125 21.113281 51.285156zm25.613281 29.25c0 9.019531-5.957031 16.671875-14.144531 19.226562.4375-5.960937 1.371094-18.585937 2.078125-28.214843h4.707031c4.058594 0 7.359375 3.304687 7.359375 7.363281zm-44.535156 83.183594c6.789062-5.066406 12.917969-10.988282 17.929688-17.941406 2.449218 15.085937 12.089843 27.5625 23.679687 36.585937h-32.085937c-2.183594-3.15625-5.871094-4.777344-9.523438-4.503906zm150.578125-60.132813c2.984375 0 5.414063 2.429688 5.414063 5.417969v1.410156c0 6.878906-4.226563 12.78125-10.21875 15.261719l1.628906-22.089844zm-30.835937-58.523437c10.113281 10.886718 15.082031 25.042968 13.992187 39.863281l-.308594 4.1875c-4.40625-2.796875-7.683593-7.253906-8.871093-12.507813l-4.144532-18.382812c-.789062-3.511719-3.414062-6.359375-6.847656-7.429688-3.433594-1.078124-7.214844-.230468-9.863281 2.203126-12.882813 11.835937-27.96875 21.453124-44.179688 28.261718.019531-.933594.015625.203125.015625-2.347656 0-12.328125-10.03125-22.359375-22.363281-22.359375h-2.992187c16.851562-32.113281 60.59375-38.363281 85.5625-11.488281zm-187.214844-148.886719v22.128906c0 4.144531 3.359375 7.5 7.5 7.5h34.191406c4.144531 0 7.5-3.355469 7.5-7.5v-22.128906c66.15625 10.199219 119.25 60.96875 132.914062 125.945313-26.984374-15.371094-60.28125-10.445313-81.761718 11.144531-6.636719-37.109375-38.796875-63.492188-75.746094-63.492188-9.6875 0-19.140625 1.78125-28.101562 5.296875-3.855469 1.511719-5.753907 5.863282-4.242188 9.71875 1.515625 3.855469 5.867188 5.757813 9.722656 4.246094 15.042969-5.902344 32.210938-5.753906 47.398438.871094 6.820312 37.824218-25.246094 71.160156-63.03125 66.15625-6.65625-.886719-12.875 3.117187-14.785156 9.511718-1.300782 4.347657-3.695313 8.277344-6.863282 11.457032l-1.894531-25.742188c-1.128906-15.332031 3.449219-30.457031 12.894531-42.582031 2.542969-3.265625 1.957032-7.980469-1.308594-10.523437-3.269531-2.546876-7.980468-1.960938-10.527343 1.308593-7.753907 9.960938-12.851563 21.550781-15.023438 33.761719-21.433593-21.53125-54.707031-26.535156-81.746093-11.132812 13.660156-64.976563 66.757812-115.746094 132.910156-125.945313zm-138.019532 148.886719c25.023438-26.933594 68.75-20.550782 85.558594 11.484375h-2.992187c-3.074219 0-6.007813.625-8.675781 1.753906-4.253907-1.898437-9.03125-2.34375-13.679688-1.171875-13.59375 3.421875-27.984375 3.488281-41.609375.191406l-1.519531-.367187c-11.523438-2.785157-23.054688 4.457031-25.550782 16.046875l-4.769531 22.15625-.753906-10.230469c-1.089844-14.820313 3.878906-28.976563 13.992187-39.863281zm-36.25 65.351562v-1.410156c0-2.988281 2.429688-5.417969 5.414063-5.417969h3.179687l1.625 22.089844c-5.992187-2.480469-10.21875-8.382813-10.21875-15.261719zm26.363282 30.242188-.714844-9.664063c5.324219-9.410156 9.191406-19.515625 11.472656-30.097656l5.324219-24.738281c.71875-3.335938 4.042969-5.425782 7.363281-4.621094l1.515625.367188c15.09375 3.648437 30.980469 3.777343 46.128907.402343-1.058594 3.414063-.996094 5.839844-.996094 8.234375 0 17.285156 12.550781 31.6875 29.019531 34.589844l-1.882813 25.53125c-1.789062 24.292969-33.453124 42.792969-48.617187 42.792969-6.777344 0-16.851563-3.707031-26.085937-9.96875-.253907-.203125-.527344-.386719-.808594-.554688-11.078125-7.738281-20.753906-19.160156-21.71875-32.273437zm21.609375 161.316406h-46.539063v-34.628906c0-4.144532-3.355468-7.5-7.5-7.5-4.140625 0-7.5 3.355468-7.5 7.5v34.628906h-28.566406v-60.328125c0-15.839844 12.882812-28.722656 28.722656-28.722656h40.386719c2.066406 13.394531 9.644531 25.359375 20.996094 32.949219zm.335937-76.097656c-2.996094-3.921875-5.117187-8.472656-6.160156-13.351563 5.5-1.386719 9.589844-6.363281 9.589844-12.285156v-7.949219c3.753906 1.765625 7.464844 3.15625 10.988281 4.175782-7.824219 7.683593-13.097656 17.953124-14.417969 29.410156zm127.9375 60.8125-2.734375-10.128906c-1.078125-4-5.195312-6.367188-9.195312-5.289063-4 1.082031-6.363281 5.195313-5.285157 9.195313l5.800782 21.507812h-51.726563v-40.855469c0-4.140625-3.355469-7.5-7.5-7.5-4.140625 0-7.5 3.359375-7.5 7.5v40.855469h-35.132812v-70.429688c0-18.847656 15.332031-34.179687 34.179687-34.179687h40.144532c-.164063 1.023437-.121094 2.09375.164062 3.144531l12.453125 46.164063c1.078125 4 5.191406 6.367187 9.195313 5.289062 4-1.078125 6.367187-5.195312 5.285156-9.191406l-3.71875-13.789063 9.261718 10.914063c1.941407 2.292969 5.164063 3.292969 8.214844 2.214844l.054688.402343c.230468 1.808594.941406 3.449219 1.992187 4.808594zm-.453125-63.078125-21.722656-25.601563 2.515625-3.785156 30.433594 16.773438zm13.992188 78.363281 5.101562-50.75h7.964844l5.101563 50.75zm51.363281-107.75 2.515625 3.785156-21.722656 25.601563-11.226563-12.613281zm-23.617188 53.097656c1.054688-1.363281 1.765626-3.003906 1.996094-4.8125l.054688-.398437c3.039062 1.074219 6.265625.082031 8.214844-2.214844l9.261718-10.914063-15.570312 57.707032zm117.230469 54.652344h-35.132812v-40.855469c0-4.140625-3.359375-7.5-7.5-7.5-4.144531 0-7.5 3.359375-7.5 7.5v40.855469h-51.726563l27.371094-101.464844c.25-.917968.335938-2.070312.164062-3.144531h40.144532c18.847656 0 34.179687 15.332031 34.179687 34.179687zm.257813-105.492188c3.570312-1.035156 7.273437-2.433593 10.976562-4.1875v7.945313c0 5.839844 4.027344 10.898437 9.59375 12.300781-1.046875 4.878906-3.164062 9.425782-6.164062 13.347656-1.316406-11.457031-6.582032-21.726562-14.40625-29.40625zm104.847656 105.492188h-28.566406v-34.628906c0-4.144532-3.359375-7.5-7.5-7.5-4.144532 0-7.5 3.355468-7.5 7.5v34.628906h-46.539063v-56.101562c11.351563-7.589844 18.933594-19.554688 20.996094-32.949219h40.390625c15.835938 0 28.71875 12.882812 28.71875 28.722656zm0 0"/></svg>