<svg height="512" viewBox="0 0 48 48" width="512" xmlns="http://www.w3.org/2000/svg"><g id="Money_growth" data-name="Money growth"><path d="m48 18.5a2.5 2.5 0 0 0 -2.5-2.5h-9a2.5 2.5 0 0 0 -2.5 2.5c0 3.39-.11 3.68.51 4.5a2.51 2.51 0 0 0 -.51 1.5c0 3.39-.11 3.68.51 4.5-.64.85-.51 1.26-.51 4.5a2.51 2.51 0 0 0 .51 1.5 2.51 2.51 0 0 0 -.51 1.5c0 3.39-.11 3.68.51 4.5-.64.85-.51 1.26-.51 4.5a2.5 2.5 0 0 0 2.5 2.5h9a2.5 2.5 0 0 0 2.5-2.5c0-3.39.11-3.68-.51-4.5a2.51 2.51 0 0 0 .51-1.5c0-3.39.11-3.68-.51-4.5.64-.85.51-1.26.51-4.5a2.51 2.51 0 0 0 -.51-1.5 2.51 2.51 0 0 0 .51-1.5c0-3.39.11-3.68-.51-4.5.64-.85.51-1.26.51-4.5zm-12 0a.5.5 0 0 1 .5-.5h9c.66 0 .5.52.5 3.5a.5.5 0 0 1 -.5.5h-9c-.66 0-.5-.52-.5-3.5zm10 6c0 3 .16 3.5-.5 3.5h-9a.5.5 0 0 1 -.5-.5c0-3-.16-3.5.5-3.5h9a.5.5 0 0 1 .5.5zm0 6c0 3 .16 3.5-.5 3.5h-9a.5.5 0 0 1 -.5-.5c0-3-.16-3.5.5-3.5h9a.5.5 0 0 1 .5.5zm0 6c0 3 .16 3.5-.5 3.5h-9a.5.5 0 0 1 -.5-.5c0-3-.16-3.5.5-3.5h9a.5.5 0 0 1 .5.5zm0 9a.5.5 0 0 1 -.5.5h-9c-.66 0-.5-.52-.5-3.5a.5.5 0 0 1 .5-.5h9c.66 0 .5.52.5 3.5z"/><path d="m28.5 22h-9a2.5 2.5 0 0 0 -2.5 2.5c0 3.39-.11 3.68.51 4.5-.64.85-.51 1.26-.51 4.5a2.51 2.51 0 0 0 .51 1.5 2.51 2.51 0 0 0 -.51 1.5c0 3.39-.11 3.68.51 4.5-.64.85-.51 1.26-.51 4.5a2.5 2.5 0 0 0 2.5 2.5h9a2.5 2.5 0 0 0 2.5-2.5c0-3.39.11-3.68-.51-4.5a2.51 2.51 0 0 0 .51-1.5c0-3.39.11-3.68-.51-4.5.64-.85.51-1.26.51-4.5a2.51 2.51 0 0 0 -.51-1.5c.64-.85.51-1.26.51-4.5a2.5 2.5 0 0 0 -2.5-2.5zm-9.5 2.5a.5.5 0 0 1 .5-.5h9c.66 0 .5.52.5 3.5a.5.5 0 0 1 -.5.5h-9c-.66 0-.5-.52-.5-3.5zm10 6c0 3 .16 3.5-.5 3.5h-9a.5.5 0 0 1 -.5-.5c0-3-.16-3.5.5-3.5h9a.5.5 0 0 1 .5.5zm0 6c0 3 .16 3.5-.5 3.5h-9a.5.5 0 0 1 -.5-.5c0-3-.16-3.5.5-3.5h9a.5.5 0 0 1 .5.5zm0 9a.5.5 0 0 1 -.5.5h-9c-.66 0-.5-.52-.5-3.5a.5.5 0 0 1 .5-.5h9c.66 0 .5.52.5 3.5z"/><path d="m7 22a7 7 0 0 0 -4.85 12 2.49 2.49 0 0 0 -2.15 2.5c0 3.39-.11 3.68.51 4.5-.64.85-.51 1.26-.51 4.5a2.5 2.5 0 0 0 2.5 2.5h9a2.5 2.5 0 0 0 2.5-2.5c0-3.39.11-3.68-.51-4.5.64-.85.51-1.26.51-4.5a2.49 2.49 0 0 0 -2.15-2.5 7 7 0 0 0 -4.85-12zm-5 7a5 5 0 1 1 5 5 5 5 0 0 1 -5-5zm10 16.5a.5.5 0 0 1 -.5.5h-9c-.66 0-.5-.52-.5-3.5a.5.5 0 0 1 .5-.5h9c.66 0 .5.52.5 3.5zm-.5-9.5c.66 0 .5.52.5 3.5a.5.5 0 0 1 -.5.5h-9c-.66 0-.5-.52-.5-3.5a.5.5 0 0 1 .5-.5z"/><path d="m7 19c.52 0-.35.6 12.05-9.74l6.37 4.55a1 1 0 0 0 1.21 0l12.68-10.17-.5 2a1 1 0 0 0 1.94.49l1.25-4.89a1.15 1.15 0 0 0 -.19-.87c-.45-.52-.46-.37-5.81-.18a1 1 0 0 0 .07 2l2-.07-12.07 9.63-6.42-4.56a1 1 0 0 0 -1.22 0l-12 10a1 1 0 0 0 .64 1.81z"/></g></svg>